<?xml version="1.0" encoding="UTF-8"?>
<!DOCTYPE svg PUBLIC "-//W3C//DTD SVG 1.1//EN" "http://www.w3.org/Graphics/SVG/1.1/DTD/svg11.dtd">
<svg xmlns="http://www.w3.org/2000/svg" version="1.1" width="144px" height="144px" style="shape-rendering:geometricPrecision; text-rendering:geometricPrecision; image-rendering:optimizeQuality; fill-rule:evenodd; clip-rule:evenodd" xmlns:xlink="http://www.w3.org/1999/xlink">
<g><path style="opacity:0.917" fill="#5285c5" d="M 104.5,17.5 C 114.099,17.9062 120.933,22.5729 125,31.5C 125.667,34.1667 125.667,36.8333 125,39.5C 123.497,42.5052 121.997,45.5052 120.5,48.5C 128.71,83.7501 116.043,107.917 82.5,121C 71.2809,124.425 60.1142,124.258 49,120.5C 45.7728,121.864 42.6061,123.364 39.5,125C 35.7387,125.738 32.0721,125.405 28.5,124C 25.6667,121.167 22.8333,118.333 20,115.5C 17.1074,110.686 16.7741,105.686 19,100.5C 20.9396,98.9546 22.1062,96.9546 22.5,94.5C 14.9652,64.078 24.6319,40.9114 51.5,25C 65.5287,18.803 79.8621,17.9697 94.5,22.5C 97.8889,20.8055 101.222,19.1389 104.5,17.5 Z M 105.5,24.5 C 112.149,25.646 116.483,29.4794 118.5,36C 116.388,39.7904 114.722,43.7904 113.5,48C 120.82,73.3752 113.82,93.7085 92.5,109C 78.7059,117.046 64.2059,118.546 49,113.5C 45.0733,114.048 41.5733,115.548 38.5,118C 36.5,118.667 34.5,118.667 32.5,118C 29.0201,115.201 26.3535,111.867 24.5,108C 26.2044,103.647 27.8711,99.3138 29.5,95C 21.7906,65.4289 31.4573,43.7622 58.5,30C 70.4243,25.5063 82.4243,25.3396 94.5,29.5C 98.5939,28.6172 102.261,26.9505 105.5,24.5 Z"/></g>
<g><path style="opacity:0.909" fill="#5285c4" d="M 66.5,35.5 C 70.509,35.0136 72.3423,36.6803 72,40.5C 64.2957,44.5184 57.2957,49.5184 51,55.5C 46.8712,60.9189 43.3712,66.7523 40.5,73C 34.5278,74.1303 33.0278,71.9636 36,66.5C 42.3543,52.3131 52.521,41.9797 66.5,35.5 Z"/></g>
</svg>
